PathFileType	4	(X/Y/Z)	/home/utkubuntu/opensim/opensim_mycode/release_code/bioimitation/imitation_envs/data/02905/02905_PRE/experimental_data/task.trc
DataRate	CameraRate	NumFrames	NumMarkers	Units	OrigDataRate	OrigDataStartFrame	OrigNumFrames
100.000000	100.000000	4	53	mm	100.000000	152	406
Frame#	Time	C7			CLAV			LANK			LASI			LBHD			LELB			LFHD			LFIN			LFMH			LHEE			LKNE			LKNI			LMED			LMET			LMIF			LPSI			LSHO			LTAD			LTHAP			LTHI			LTIAD			LTIB			LTOE			LTTU			LWRA			LWRB			RANK			RASI			RBAK			RBHD			RELB			RFHD			RFIN			RFMH			RHEE			RKNE			RKNI			RMED			RMET			RMIF			RPSI			RSHO			RTAD			RTHAP			RTHI			RTIAD			RTIB			RTOE			RTTU			RWRA			RWRB			STRN			T10			
		X1	Y1	Z1	X2	Y2	Z2	X3	Y3	Z3	X4	Y4	Z4	X5	Y5	Z5	X6	Y6	Z6	X7	Y7	Z7	X8	Y8	Z8	X9	Y9	Z9	X10	Y10	Z10	X11	Y11	Z11	X12	Y12	Z12	X13	Y13	Z13	X14	Y14	Z14	X15	Y15	Z15	X16	Y16	Z16	X17	Y17	Z17	X18	Y18	Z18	X19	Y19	Z19	X20	Y20	Z20	X21	Y21	Z21	X22	Y22	Z22	X23	Y23	Z23	X24	Y24	Z24	X25	Y25	Z25	X26	Y26	Z26	X27	Y27	Z27	X28	Y28	Z28	X29	Y29	Z29	X30	Y30	Z30	X31	Y31	Z31	X32	Y32	Z32	X33	Y33	Z33	X34	Y34	Z34	X35	Y35	Z35	X36	Y36	Z36	X37	Y37	Z37	X38	Y38	Z38	X39	Y39	Z39	X40	Y40	Z40	X41	Y41	Z41	X42	Y42	Z42	X43	Y43	Z43	X44	Y44	Z44	X45	Y45	Z45	X46	Y46	Z46	X47	Y47	Z47	X48	Y48	Z48	X49	Y49	Z49	X50	Y50	Z50	X51	Y51	Z51	X52	Y52	Z52	X53	Y53	Z53	

153	1.52	141.1170043945312	1450.446044921875	-230.9080047607419	241.4299926757812	1351.909057617188	-231.2319946289059	115.177001953125	171.8809967041016	-323.4530029296874	219.5890045166016	940.0440063476564	-338.9549865722654	178.8260040283203	1558.113037109375	-303.3989868164059	145.4440002441406	1051.2509765625	-456.6130065917966	322.0820007324219	1627.626953125	-277.7810058593747	225.6699981689453	777.0939941406251	-458.3290100097655	215.9739990234375	62.48799896240241	-272.0769958496094	54.81999969482422	161.0070037841797	-284.0719909667968	321.2680053710938	492.9219970703126	-360.2120056152343	342.9190063476562	486.0840148925782	-245.4680023193358	137.2140045166016	174.0030059814454	-245.5989990234375	177.2180023193359	71.70600128173835	-346.9750061035156	185.8450012207031	126.0849990844727	-302.9989929199219	63.59199905395508	960.2730102539064	-270.7040100097654	163.6269989013672	1377.776000976562	-400.033996582031	384.4549865722656	574.1740112304689	-310.9469909667968	319.1889953613281	737.6259765625001	-306.8410034179686	291.10400390625	577.4580078125001	-409.9330139160155	227.3939971923828	259.3500061035157	-294.7040100097656	228.9969940185547	354.0320129394532	-400.5599975585937	207.9320068359375	70.59600067138679	-313.3949890136719	346.1589965820312	401.1080017089844	-308.1910095214843	236.0059967041016	824.0269775390626	-414.2780151367186	190.9819946289062	820.0850219726564	-467.2189941406248	62.23600006103516	70.85399627685551	-172.8430023193359	229.0039978027344	949.1510009765625	-97.40799713134744	83.58599853515625	1332.131958007812	-102.6760025024411	178.7050018310547	1537.630004882812	-143.4160003662106	121.8249969482422	1074.115966796875	20.38199996948266	314.2170104980469	1608.670043945312	-154.3520050048824	271.8269958496094	807.1669921875	49.08499908447283	206.9629974365234	33.84799957275396	-222.5809936523438	8.079999923706055	35.28200149536138	-210.8110046386719	139.3979949951172	467.85400390625	-110.8470001220702	139.3220062255859	470.4140014648438	-231.6320037841796	70.58699798583984	89.94400024414068	-253.7270050048828	158.5099945068359	23.03000068664554	-133.1679992675781	152.7740020751953	64.51100158691411	-195.7339935302734	68.78199768066406	971.0050048828125	-165.6239929199216	170.2630004882812	1383.75	-49.92300033569305	217.4380035400391	549.2470092773438	-146.7239990234374	254.697998046875	714.3359985351562	-116.5930023193358	152.4510040283203	580.2509765625	-49.02799987792956	136.927001953125	256.0859985351563	-186.7010040283203	82.11599731445312	283.0929870605469	-78.10600280761713	196.2769927978516	35.88100051879887	-177.6260070800781	174.0930023193359	394.5159912109376	-169.2749938964843	266.6300048828125	860.7960205078125	0.7450000047685628	218.2120056152344	841.7420043945312	48.71400070190448	264.5589904785156	1192.548950195312	-232.3170013427732	59.89799880981445	1153.702026367188	-220.0870056152341	
154	1.53	152.322998046875	1449.741943359375	-231.0500030517575	252.5480041503906	1351.131958007812	-231.4649963378903	147.6730041503906	162.529998779297	-323.6449890136718	231.1139984130859	939.5089721679689	-338.7590026855466	189.8690032958984	1557.14501953125	-303.9710083007809	151.4409942626953	1050.504028320312	-455.4580078124998	333.135009765625	1626.779052734375	-278.8320007324215	225.4250030517578	774.5780029296876	-457.1860046386717	254.2680053710938	59.00899887084967	-271.7940063476562	87.96399688720703	148.5809936523438	-284.3200073242187	338.2560119628906	494.0660095214844	-360.0190124511718	358.7630004882812	487.8160095214844	-245.2270050048827	169.2369995117188	165.8750000000001	-245.7250061035156	215.2960052490234	66.03700256347663	-346.8219909667969	220.9770050048828	120.8840026855469	-302.9289855957031	74.61699676513672	959.2620239257814	-271.7090148925779	174.1519927978516	1376.788940429688	-400.1300048828122	399.3510131835938	577.1480102539064	-309.3519897460936	331.4549865722656	739.0469970703126	-305.1119995117186	308.5230102539062	579.4580078125001	-410.2739868164061	255.3079986572266	255.8439941406251	-294.4060058593749	252.9470062255859	349.7529907226564	-400.7640075683593	245.9739990234375	66.65699768066413	-313.1889953613281	366.4230041503906	403.2510070800782	-307.6029968261718	236.9140014648438	821.3709716796876	-413.2149963378905	191.8529968261719	818.5109863281251	-466.1489868164061	62.32899856567383	71.34500122070317	-173.2680053710937	238.9609985351562	948.1300048828125	-97.02700042724588	94.99900054931641	1331.694946289062	-102.351997375488	190.1100006103516	1537.0830078125	-143.9400024414059	135.3600006103516	1073.614990234375	21.90600013732934	325.5539855957031	1608.136962890625	-155.337005615234	289.1199951171875	808.75	49.72600173950213	207.1999969482422	33.88899993896489	-222.5	7.921000003814697	35.89199829101567	-211.4859924316406	141.1999969482422	467.885009765625	-111.2639999389647	142.1289978027344	470.3829956054688	-232.0140075683593	70.947998046875	90.30100250244146	-254.1950073242187	158.3639984130859	23.06999969482425	-133.3029937744141	152.9149932861328	64.56099700927739	-195.8820037841797	79.25399780273438	970.3499755859375	-166.6820068359373	181.8869934082031	1383.308959960938	-49.99200057983368	221.5429992675781	547.7760009765625	-146.6069946289061	261.5230102539062	712.3720092773438	-116.2450027465819	156.0260009765625	580.135009765625	-49.47900009155261	137.9920043945312	256.1419982910157	-186.7859954833984	82.68499755859375	283.7120056152344	-78.50299835205072	196.2469940185547	35.84099960327153	-177.6080017089844	175.7330017089844	394.1919860839844	-169.3470001220702	282.7460021972656	862.1950073242188	1.381999969482613	235.0420074462891	842.4869995117188	49.65399932861347	275.4760131835938	1191.77294921875	-232.2030029296872	70.83200073242188	1153.0810546875	-220.3939971923826	
155	1.54	163.5460052490234	1448.880981445312	-231.22200012207	263.7059936523438	1350.214965820312	-231.7319946289059	180.6269989013672	153.0749969482423	-323.7229919433593	242.6269989013672	938.7709960937501	-338.6969909667966	200.9109954833984	1556.015014648438	-304.5740051269528	157.3869934082031	1049.68701171875	-454.231994628906	344.1679992675781	1625.807983398438	-279.9049987792965	225.2510070800781	772.2030029296876	-456.0629882812498	292.875	55.83200073242193	-271.4330139160156	121.7779998779297	136.1080017089844	-284.3670043945312	354.4570007324219	494.7579956054688	-359.9660034179686	374.0270080566406	488.9249877929688	-245.1289978027343	201.9129943847656	157.6289978027344	-245.7700042724609	253.7420043945312	60.56100082397469	-346.5700073242188	256.3909912109375	115.7009963989259	-302.8250122070312	85.69000244140625	958.1119995117189	-272.6510009765623	184.6829986572266	1375.682006835938	-400.2550048828122	413.5889892578125	579.4979858398439	-307.8599853515624	343.385986328125	739.9320068359376	-303.3510131835936	325.3980102539062	581.1149902343751	-410.6220092773436	283.1119995117188	252.082992553711	-294.2669982910156	276.3720092773438	345.3280029296876	-400.9689941406249	284.2569885253906	62.92100143432624	-312.885986328125	386.0400085449219	405.0750122070313	-307.2430114746093	237.9570007324219	818.8200073242189	-412.1969909667967	192.7700042724609	817.0050048828126	-465.0260009765623	62.41500091552734	71.87799835205082	-173.677001953125	249.0019989013672	947	-96.76999664306619	106.4169998168945	1331.109985351562	-102.1029968261716	201.5079956054688	1536.364013671875	-144.5010070800778	148.9179992675781	1072.983032226562	23.365999221802	336.864990234375	1607.473022460938	-156.3450012207028	306.2349853515625	810.1810302734375	50.32500076293963	207.4600067138672	33.9500007629395	-222.3999938964844	7.429999828338623	36.69800186157232	-212.2539978027344	143.1940002441406	467.9649963378906	-111.6279983520507	145.1880035400391	470.3680114746094	-232.2700042724608	71.26499938964844	90.71900177001959	-254.625	158.2050018310547	23.10700035095218	-133.4340057373047	153.0579986572266	64.64800262451176	-195.9920043945312	89.79100036621094	969.4840087890625	-167.699996948242	193.5130004882812	1382.70703125	-50.11100006103485	225.7369995117188	546.3189697265625	-146.4309997558593	268.2699890136719	710.4290161132812	-116.0839996337889	159.6739959716797	580.0579833984375	-49.94499969482409	139.1419982910156	256.2330017089844	-186.8090057373046	83.34100341796875	284.3919982910156	-78.86399841308588	196.2050018310547	35.80599975585942	-177.572998046875	177.5370025634766	393.8739929199219	-169.3329925537109	298.7139892578125	863.4149780273438	1.965999960899545	251.7489929199219	843.0969848632812	50.52299880981464	286.4179992675781	1190.844970703125	-232.1029968261716	81.81099700927734	1152.296020507812	-220.7640075683591	
156	1.55	174.7890014648438	1447.862060546875	-231.4290008544919	274.89599609375	1349.154052734375	-232.0379943847653	214.0529937744141	143.6020050048829	-323.7470092773437	254.1390075683594	937.8300170898439	-338.7579956054685	211.9579925537109	1554.725952148438	-305.2059936523434	163.2960052490234	1048.805053710938	-452.9309997558591	355.1910095214844	1624.708984375	-281.0020141601559	225.1849975585938	769.9660034179689	-454.959014892578	331.7349853515625	53.08599853515631	-271.0029907226562	156.0859985351562	123.6029968261719	-284.3949890136719	369.8590087890625	494.9570007324219	-360.0400085449218	388.7409973144531	489.4179992675782	-245.1439971923827	235.1490020751953	149.4100036621094	-245.7339935302734	292.5339965820312	55.41699981689461	-346.2319946289062	291.9909973144531	110.613998413086	-302.6860046386719	96.82199859619141	956.8469848632814	-273.5429992675779	195.2220001220703	1374.461059570312	-400.4140014648435	427.1549987792969	581.1450195312501	-306.5650024414061	355.02099609375	740.2579956054689	-301.6499938964842	341.6619873046875	582.3389892578126	-410.9670104980468	310.8479919433594	248.1940002441407	-294.2590026855468	299.0950012207031	340.8450012207032	-401.1340026855468	322.7340087890625	59.51100158691413	-312.4970092773438	404.9779968261719	406.5669860839844	-307.1040039062499	239.1750030517578	816.3770141601564	-411.2340087890623	193.7579956054688	815.5700073242189	-463.855987548828	62.49900054931641	72.43599700927739	-174.0919952392578	259.1419982910156	945.7670288085938	-96.63999938964822	117.8550033569336	1330.364013671875	-101.9290008544919	212.9019927978516	1535.48095703125	-145.0959930419918	162.5010070800781	1072.235961914062	24.75000000000024	348.1579895019531	1606.676025390625	-157.3769989013668	323.1589965820312	811.4559936523438	50.88499832153338	207.6940002441406	34.00699996948247	-222.2940063476562	7.020999908447266	37.54800033569341	-213.0169982910156	145.5339965820312	468.0710144042969	-111.9110031127929	148.4709930419922	470.3240051269532	-232.4349975585936	71.60299682617188	91.2170028686524	-255.0189971923828	158.0319976806641	23.15299987792972	-133.5749969482422	153.2200012207031	64.79000091552739	-196.0709991455078	100.4049987792969	968.448974609375	-168.6829986572263	205.1450042724609	1381.9560546875	-50.28799819946259	230.0110015869141	544.906005859375	-146.2570037841796	275.0190124511719	708.5170288085938	-116.111000061035	163.5970001220703	579.9940185546875	-50.36100006103503	140.4190063476562	256.3410034179688	-186.7960052490234	84.16400146484375	285.0820007324219	-79.20899963378901	196.1629943847656	35.77799987792973	-177.5330047607422	179.5540008544922	393.5440063476563	-169.2429962158202	314.5289916992188	864.4539794921875	2.497999906540109	268.3169860839844	843.5770263671875	51.33000183105487	297.3980102539062	1189.765991210938	-232.0290069580076	92.84400177001953	1151.343994140625	-221.1779937744138	
